<svg xmlns="http://www.w3.org/2000/svg" viewBox="0 0 126.8 77.1">
	<path fill="#939699" d="M56.1,14.1H45.2v1.5h6.2v0.5h-4.1v1.2h6.5V18h-4.1v1h5.2 L56.1,14.1L56.1,14.1z M60.4,42.6c11,0,20-8.9,20-20c0-11-8.9-20-20-20c-11,0-20,9-20,20C40.5,33.7,49.5,42.6,60.4,42.6L60.4,42.6z M37.8,22.7C37.8,10.2,48,0,60.4,0C73,0,83.1,10.2,83.1,22.7c0,12.5-10.1,22.7-22.7,22.7C48,45.3,37.8,35.2,37.8,22.7L37.8,22.7z M60.4,29c-4.2,0-9.5,1.5-8.4,5.4l-1,0.5c-1-2-3.4-2.7-5.4-2.8l-0.3-1c1.3-1.6,1.6-3.6,0.5-5.7l0.8-0.8c1.2,0.9,2.2,1.8,4,0.4 c4.5-3.4,5.6-6.2,6.6-11.8c0.3-1.8-0.8-3-2.2-3.4l0.2-1.2l2.5-0.9c0.5-0.2,0.8-0.5,1.1-0.8c0.2-0.2,0.3-0.5,0.5-0.8l0.5-0.9h0.6H61 l0.5,0.9c0.1,0.3,0.3,0.5,0.5,0.8c0.3,0.4,0.6,0.7,1.1,0.8l2.5,0.9l0.2,1.2c-1.4,0.5-2.5,1.6-2.2,3.4c1,5.6,2.2,8.4,6.6,11.8 c1.8,1.4,2.8,0.4,4-0.4l0.8,0.8c-1.1,2.2-0.8,4.1,0.5,5.7l-0.3,1c-2.1,0.1-4.4,0.8-5.4,2.8l-1-0.5C69.9,30.5,64.6,29,60.4,29 L60.4,29z M64.7,14.1h10.9v1.5h-6.2v0.5h4.1v1.2H67V18h4.1v1h-5.2L64.7,14.1L64.7,14.1z M60.4,41.6c10.5,0,19-8.5,19-19H41.5 C41.5,33.1,50,41.6,60.4,41.6L60.4,41.6z"/>
	<g fill="#FAB72D">
		<path d="M23.3,68v-14h-6.7v13.8c0,1.5-0.1,2.1-0.5,2.6 c0.2-0.3-0.7,2.1-4.1,2.2c-2,0-3.2-0.5-3.7-1.1c-0.5-0.6-1.7-2.1-1.7-3.8V53.9H0v14c0,2.6,1,4.5,2.1,5.8c1.7,1.9,3.1,3.3,9.7,3.3 c5.8,0,7.1-1.1,9-2.5C22.6,73.2,23.3,71.2,23.3,68L23.3,68L23.3,68z"/>
		<polygon points="46,76.6 56.9,76.6 56.9,53.9 50.1,53.9 50.1,69.1 40.5,53.9 31.3,53.9 31.3,76.6 37.7,76.6 37.7,62.4 46,76.6 	"/>
		<polygon points="65.3,76.6 83.6,76.6 83.6,71.9 72,71.9 72,67.3 82.5,67.3 82.5,62.7 72,62.7 72,58.6 83.6,58.6 83.6,53.9 65.3,53.9 65.3,76.6 	"/>
		<polygon points="116.7,76.6 107.5,65.1 116.3,53.9 107.7,53.9 103.4,60.3 99,53.9 89.8,53.9 98.4,65.3 89.2,76.6 97.9,76.6 102.6,69.9 107.4,76.6 116.7,76.6 	"/>
		<path d="M126.8,57.5c0-1.9-1.5-3.5-3.4-3.5c-2,0-3.5,1.5-3.5,3.5 c0,1.9,1.6,3.5,3.5,3.5C125.3,60.9,126.8,59.3,126.8,57.5L126.8,57.5z M126.4,57.5c0,1.7-1.4,3-3.1,3c-1.7,0-3.1-1.4-3.1-3 c0-1.7,1.4-3.1,3.1-3.1C125.1,54.3,126.4,55.8,126.4,57.5L126.4,57.5z M125.1,59.7l-1.4-1.9c0.5-0.2,1.1-0.3,1.2-1.1 c0-1-0.4-1.4-1.3-1.4h-1.8v4.4h0.8v-1.9h0.2l1.1,1.9H125.1L125.1,59.7z M123.4,57.2h-0.8v-1.1h0.8c0.4,0,0.6,0.2,0.6,0.6 S123.8,57.2,123.4,57.2L123.4,57.2z"/>
	</g>
</svg>
