<?xml version="1.0" encoding="utf-8"?>
<!-- Generator: Adobe Illustrator 21.1.0, SVG Export Plug-In . SVG Version: 6.00 Build 0)  -->
<svg version="1.1" id="Vrstva_1" xmlns="http://www.w3.org/2000/svg" xmlns:xlink="http://www.w3.org/1999/xlink" x="0px" y="0px"
	 viewBox="0 0 733.7 135.6" style="enable-background:new 0 0 733.7 135.6;" xml:space="preserve">
<style type="text/css">
	.st0{fill-rule:evenodd;clip-rule:evenodd;fill:#0066A5;}
</style>
<g>
	<path class="st0" d="M255.8,26.5v92.7C288,103.6,287.1,44.7,255.8,26.5L255.8,26.5z M450.1,65.7h16.6l-7.7-41.1h-1.1L450.1,65.7
		L450.1,65.7z M729,135.6H586.7v-32.2H622c2.3,0,4.6-1.6,2.3-5.1l-49.6-81.3l4.2-5L723.5,12v32.5h-35.4c-2.9,0.2-3.3,2.1-2.3,4
		l47.8,82.3L729,135.6L729,135.6z M438,135.6l6.7-36.9h28l7.8,36.9h84.4L539.6,12H405.2l-22.1,123.6H438L438,135.6z M146.3,135.6
		l0.2-32.2h-39.8L154.3,12h-16.4V0C96.7,12.3,78.2,12.1,42.5,12.1H5.4v32.4h37.2L0,135.6H146.3L146.3,135.6z M340.6,135.6
		c37.1-31.3,43-86.6,0-123.6h-27.3V0c-42.2,10.3-55.9,12-96.5,12h-42.9v123.6H340.6L340.6,135.6z"/>
</g>
</svg>